<?xml version="1.0" encoding="UTF-8"?>
<svg version="1.1" xmlns="http://www.w3.org/2000/svg" width="512" height="512">
<path d="M0 0 C8.33923054 7.56734675 15.73283935 15.67995941 22.69335938 24.53662109 C23.55095392 25.5823546 24.41040348 26.62656895 25.27148438 27.66943359 C51.51568382 59.76198856 67.59576687 98.49848273 75.94335938 138.84912109 C76.17031494 139.93942627 76.17031494 139.93942627 76.40185547 141.05175781 C79.41556616 156.55619257 80.06733767 171.90674052 80.00585938 187.66162109 C80.00370422 188.65585083 80.00154907 189.65008057 79.99932861 190.67443848 C79.9490005 205.14042475 79.66012632 219.32681223 76.69335938 233.53662109 C76.38736816 235.02500488 76.38736816 235.02500488 76.07519531 236.54345703 C71.42170507 258.55101132 64.50817759 279.30347025 54.69335938 299.53662109 C54.2205957 300.52106201 54.2205957 300.52106201 53.73828125 301.52539062 C42.72804169 324.15821027 27.08025469 344.46612032 9.69335938 362.53662109 C9.14276855 363.11444336 8.59217773 363.69226563 8.02490234 364.28759766 C0.33576908 372.32573812 -7.62646803 379.58397828 -16.55322266 386.22314453 C-18.27973374 387.51646528 -19.97963438 388.83911576 -21.67773438 390.16943359 C-57.73163982 418.0074929 -102.30944856 434.1856537 -147.30664062 439.53662109 C-148.09562744 439.63233398 -148.88461426 439.72804688 -149.69750977 439.82666016 C-218.95857228 447.20287409 -285.98255172 424.91157103 -340.23632812 382.23193359 C-355.53144591 369.73897479 -369.7317734 355.55642708 -381.30664062 339.53662109 C-382.15998455 338.38887351 -383.01416501 337.24174747 -383.86914062 336.09521484 C-389.91411138 327.90410741 -395.29852231 319.3959993 -400.30664062 310.53662109 C-400.70882813 309.82940918 -401.11101562 309.12219727 -401.52539062 308.39355469 C-414.55081473 285.25816274 -423.29965523 260.086997 -428.61914062 234.09912109 C-428.76649658 233.38022705 -428.91385254 232.66133301 -429.06567383 231.9206543 C-431.98881521 216.54119749 -432.71268526 201.28167139 -432.68164062 185.66162109 C-432.68142914 184.67549835 -432.68121765 183.68937561 -432.68099976 182.67337036 C-432.64678852 166.64224308 -431.68661352 151.25652767 -428.30664062 135.53662109 C-428.1194043 134.6384668 -427.93216797 133.7403125 -427.73925781 132.81494141 C-425.00855727 120.03865855 -420.96524017 107.73054788 -416.30664062 95.53662109 C-416.00387207 94.74400879 -415.70110352 93.95139648 -415.38916016 93.13476562 C-398.76891858 50.33038487 -367.75921225 9.38597378 -330.30664062 -17.46337891 C-329.16108976 -18.31356929 -328.01657991 -19.16516391 -326.87304688 -20.01806641 C-318.68130379 -26.06715991 -310.16233056 -31.44324637 -301.30664062 -36.46337891 C-300.64825195 -36.83849609 -299.98986328 -37.21361328 -299.31152344 -37.60009766 C-215.54902283 -84.86521596 -105.26298611 -76.0343663 0 0 Z " fill="#FB9E90" transform="translate(432.306640625,69.46337890625)"/>
<path d="M0 0 C8.33923054 7.56734675 15.73283935 15.67995941 22.69335938 24.53662109 C23.55095392 25.5823546 24.41040348 26.62656895 25.27148438 27.66943359 C51.51568382 59.76198856 67.59576687 98.49848273 75.94335938 138.84912109 C76.17031494 139.93942627 76.17031494 139.93942627 76.40185547 141.05175781 C79.41556616 156.55619257 80.06733767 171.90674052 80.00585938 187.66162109 C80.00370422 188.65585083 80.00154907 189.65008057 79.99932861 190.67443848 C79.9490005 205.14042475 79.66012632 219.32681223 76.69335938 233.53662109 C76.38736816 235.02500488 76.38736816 235.02500488 76.07519531 236.54345703 C71.42170507 258.55101132 64.50817759 279.30347025 54.69335938 299.53662109 C54.2205957 300.52106201 54.2205957 300.52106201 53.73828125 301.52539062 C42.72804169 324.15821027 27.08025469 344.46612032 9.69335938 362.53662109 C9.14276855 363.11444336 8.59217773 363.69226563 8.02490234 364.28759766 C0.33576908 372.32573812 -7.62646803 379.58397828 -16.55322266 386.22314453 C-18.27973374 387.51646528 -19.97963438 388.83911576 -21.67773438 390.16943359 C-57.73163982 418.0074929 -102.30944856 434.1856537 -147.30664062 439.53662109 C-148.09562744 439.63233398 -148.88461426 439.72804688 -149.69750977 439.82666016 C-218.95857228 447.20287409 -285.98255172 424.91157103 -340.23632812 382.23193359 C-355.53144591 369.73897479 -369.7317734 355.55642708 -381.30664062 339.53662109 C-382.15998455 338.38887351 -383.01416501 337.24174747 -383.86914062 336.09521484 C-389.91411138 327.90410741 -395.29852231 319.3959993 -400.30664062 310.53662109 C-400.70882813 309.82940918 -401.11101562 309.12219727 -401.52539062 308.39355469 C-414.55081473 285.25816274 -423.29965523 260.086997 -428.61914062 234.09912109 C-428.76649658 233.38022705 -428.91385254 232.66133301 -429.06567383 231.9206543 C-431.98881521 216.54119749 -432.71268526 201.28167139 -432.68164062 185.66162109 C-432.68142914 184.67549835 -432.68121765 183.68937561 -432.68099976 182.67337036 C-432.64678852 166.64224308 -431.68661352 151.25652767 -428.30664062 135.53662109 C-428.1194043 134.6384668 -427.93216797 133.7403125 -427.73925781 132.81494141 C-425.00855727 120.03865855 -420.96524017 107.73054788 -416.30664062 95.53662109 C-416.00387207 94.74400879 -415.70110352 93.95139648 -415.38916016 93.13476562 C-398.76891858 50.33038487 -367.75921225 9.38597378 -330.30664062 -17.46337891 C-329.16108976 -18.31356929 -328.01657991 -19.16516391 -326.87304688 -20.01806641 C-318.68130379 -26.06715991 -310.16233056 -31.44324637 -301.30664062 -36.46337891 C-300.64825195 -36.83849609 -299.98986328 -37.21361328 -299.31152344 -37.60009766 C-215.54902283 -84.86521596 -105.26298611 -76.0343663 0 0 Z M-213.30664062 -23.83837891 C-214.04172852 -23.58604492 -214.77681641 -23.33371094 -215.53417969 -23.07373047 C-238.85211366 -14.70395562 -261.36485406 1.10682987 -274.30664062 22.53662109 C-274.93699219 23.55755859 -275.56734375 24.57849609 -276.21679688 25.63037109 C-284.50343083 39.55319347 -290.8294415 54.04631168 -294.64550781 69.81079102 C-295.16396561 71.94837644 -295.70596404 74.0802544 -296.25683594 76.2097168 C-298.97734772 86.94521085 -300.45884602 97.59092968 -301.55664062 108.59912109 C-301.73012187 110.25612692 -301.90459711 111.91302898 -302.08007812 113.56982422 C-302.50033009 117.557661 -302.90735295 121.54663304 -303.30664062 125.53662109 C-303.9019458 125.57980469 -304.49725098 125.62298828 -305.1105957 125.66748047 C-311.93711626 126.27224791 -316.16081 127.88316825 -321.30664062 132.53662109 C-328.20471374 140.89529249 -328.98661386 147.85852295 -328.30664062 158.53662109 C-326.22673904 169.81744322 -319.22419679 178.70577307 -310.30664062 185.53662109 C-309.64664063 185.86662109 -308.98664063 186.19662109 -308.30664062 186.53662109 C-308.12426037 193.20363275 -308.71681929 199.30966742 -309.99414062 205.84912109 C-310.17420654 206.77192871 -310.35427246 207.69473633 -310.53979492 208.64550781 C-314.15372642 226.21035727 -323.120034 238.81424887 -335.30664062 251.53662109 C-352.62148267 269.63168133 -373.08956175 296.14920198 -372.62133789 322.5402832 C-372.07861909 325.98311615 -370.07162926 328.35014889 -367.86914062 330.91162109 C-367.41756592 331.46615967 -366.96599121 332.02069824 -366.50073242 332.59204102 C-362.92474146 336.93909136 -359.18668653 341.15094636 -355.36914062 345.28662109 C-353.55606968 347.26451667 -351.83625048 349.28858926 -350.11914062 351.34912109 C-344.70988487 357.57103499 -338.4496453 363.0530048 -332.30664062 368.53662109 C-331.75766113 369.03371582 -331.20868164 369.53081055 -330.64306641 370.04296875 C-327.46548417 372.94896208 -327.46548417 372.94896208 -323.30664062 373.53662109 C-321.66050572 371.57771551 -321.66050572 371.57771551 -320.11914062 369.03662109 C-301.69355319 341.87509262 -265.33432049 331.4085304 -235.30664062 322.53662109 C-234.26137207 322.22611816 -233.21610352 321.91561523 -232.13916016 321.59570312 C-231.17478027 321.30937012 -230.21040039 321.02303711 -229.21679688 320.72802734 C-228.3111499 320.45853271 -227.40550293 320.18903809 -226.47241211 319.91137695 C-224.86121709 319.43592967 -223.24766958 318.96832651 -221.63110352 318.51147461 C-211.89848352 315.78415759 -211.89848352 315.78415759 -203.93164062 309.97412109 C-198.85845709 299.2423867 -197.90258537 287.17692549 -196.30664062 275.53662109 C-194.85257812 276.21724609 -194.85257812 276.21724609 -193.36914062 276.91162109 C-185.99883328 280.0422892 -178.63669866 280.92492387 -170.68164062 280.91162109 C-169.3892749 280.91246704 -169.3892749 280.91246704 -168.07080078 280.91333008 C-159.59838949 280.76990258 -150.96334433 279.36497295 -143.30664062 275.53662109 C-141.8439016 278.46209914 -142.07061766 281.21477864 -141.93164062 284.47412109 C-141.42762221 293.48925136 -140.02157112 304.14179748 -134.30664062 311.53662109 C-129.04728584 315.94079624 -123.10307147 317.21834976 -116.55664062 318.91162109 C-114.28628044 319.5257523 -112.01674915 320.14295582 -109.74804688 320.76318359 C-108.64090332 321.06514648 -107.53375977 321.36710937 -106.39306641 321.67822266 C-74.55025475 330.53436297 -43.55087628 342.43676941 -20.30664062 366.53662109 C-19.30799656 367.53797519 -18.3082334 368.53821641 -17.30664062 369.53662109 C3.31918109 350.45086073 21.33289898 330.83114115 35.69335938 306.53662109 C36.14839844 305.82634766 36.6034375 305.11607422 37.07226562 304.38427734 C39.50003702 300.51845321 40.11873092 298.06494354 39.69335938 293.53662109 C38.645976 290.85965758 37.57496696 288.44443023 36.25585938 285.91162109 C35.71723267 284.86047119 35.71723267 284.86047119 35.16772461 283.78808594 C27.36311966 269.0013004 15.51046943 256.08558574 2.88085938 245.22412109 C-14.84148493 229.7598361 -25.21606734 213.41316862 -27.30664062 189.53662109 C-27.39848633 188.56692383 -27.39848633 188.56692383 -27.4921875 187.57763672 C-28.22871231 178.86347244 -27.88655135 172.8460758 -22.13085938 165.80615234 C-16.39329503 158.66798343 -15.66367388 150.97672868 -15.91601562 142.03662109 C-16.42752723 137.45347707 -17.61468627 134.24492556 -20.30664062 130.53662109 C-21.00789063 129.56724609 -21.70914062 128.59787109 -22.43164062 127.59912109 C-24.14181172 125.46862134 -24.14181172 125.46862134 -26.30664062 124.53662109 C-26.3285144 123.53586548 -26.3285144 123.53586548 -26.35083008 122.51489258 C-27.33642027 81.75742944 -33.89845623 47.45204529 -59.96191406 15.21044922 C-61.19931449 13.67021369 -62.41425862 12.11200804 -63.62695312 10.55224609 C-79.79889481 -9.96699175 -100.3206843 -19.91094417 -125.30664062 -25.46337891 C-126.09312988 -25.64674805 -126.87961914 -25.83011719 -127.68994141 -26.01904297 C-141.34668183 -29.10021632 -154.79960466 -29.86063641 -168.74414062 -29.90087891 C-169.53926056 -29.90696167 -170.33438049 -29.91304443 -171.15359497 -29.91931152 C-185.49665396 -29.99114623 -199.67359807 -28.59000455 -213.30664062 -23.83837891 Z " fill="#FEC17E" transform="translate(432.306640625,69.46337890625)"/>
<path d="M0 0 C8.33923054 7.56734675 15.73283935 15.67995941 22.69335938 24.53662109 C23.55095392 25.5823546 24.41040348 26.62656895 25.27148438 27.66943359 C51.51568382 59.76198856 67.59576687 98.49848273 75.94335938 138.84912109 C76.17031494 139.93942627 76.17031494 139.93942627 76.40185547 141.05175781 C79.41556616 156.55619257 80.06733767 171.90674052 80.00585938 187.66162109 C80.00370422 188.65585083 80.00154907 189.65008057 79.99932861 190.67443848 C79.9490005 205.14042475 79.66012632 219.32681223 76.69335938 233.53662109 C76.38736816 235.02500488 76.38736816 235.02500488 76.07519531 236.54345703 C71.42170507 258.55101132 64.50817759 279.30347025 54.69335938 299.53662109 C54.2205957 300.52106201 54.2205957 300.52106201 53.73828125 301.52539062 C42.72804169 324.15821027 27.08025469 344.46612032 9.69335938 362.53662109 C9.14276855 363.11444336 8.59217773 363.69226563 8.02490234 364.28759766 C0.33576908 372.32573812 -7.62646803 379.58397828 -16.55322266 386.22314453 C-18.27973374 387.51646528 -19.97963438 388.83911576 -21.67773438 390.16943359 C-57.73163982 418.0074929 -102.30944856 434.1856537 -147.30664062 439.53662109 C-148.09562744 439.63233398 -148.88461426 439.72804688 -149.69750977 439.82666016 C-218.95857228 447.20287409 -285.98255172 424.91157103 -340.23632812 382.23193359 C-355.53144591 369.73897479 -369.7317734 355.55642708 -381.30664062 339.53662109 C-382.15998455 338.38887351 -383.01416501 337.24174747 -383.86914062 336.09521484 C-389.91411138 327.90410741 -395.29852231 319.3959993 -400.30664062 310.53662109 C-400.70882813 309.82940918 -401.11101562 309.12219727 -401.52539062 308.39355469 C-414.55081473 285.25816274 -423.29965523 260.086997 -428.61914062 234.09912109 C-428.76649658 233.38022705 -428.91385254 232.66133301 -429.06567383 231.9206543 C-431.98881521 216.54119749 -432.71268526 201.28167139 -432.68164062 185.66162109 C-432.68142914 184.67549835 -432.68121765 183.68937561 -432.68099976 182.67337036 C-432.64678852 166.64224308 -431.68661352 151.25652767 -428.30664062 135.53662109 C-428.1194043 134.6384668 -427.93216797 133.7403125 -427.73925781 132.81494141 C-425.00855727 120.03865855 -420.96524017 107.73054788 -416.30664062 95.53662109 C-416.00387207 94.74400879 -415.70110352 93.95139648 -415.38916016 93.13476562 C-398.76891858 50.33038487 -367.75921225 9.38597378 -330.30664062 -17.46337891 C-329.16108976 -18.31356929 -328.01657991 -19.16516391 -326.87304688 -20.01806641 C-318.68130379 -26.06715991 -310.16233056 -31.44324637 -301.30664062 -36.46337891 C-300.64825195 -36.83849609 -299.98986328 -37.21361328 -299.31152344 -37.60009766 C-215.54902283 -84.86521596 -105.26298611 -76.0343663 0 0 Z M-325.72558594 -0.78417969 C-327.29847323 0.52979812 -328.88992706 1.81777258 -330.48632812 3.10302734 C-343.31720774 13.55215041 -355.30732692 25.33899749 -365.30664062 38.53662109 C-365.7165625 39.06481445 -366.12648438 39.59300781 -366.54882812 40.13720703 C-405.5094592 90.42293279 -422.49956391 153.56734755 -415.00195312 216.64208984 C-408.62165307 264.0562898 -388.15373961 308.88473111 -356.30664062 344.53662109 C-355.58758545 345.34824707 -355.58758545 345.34824707 -354.85400391 346.17626953 C-347.77231518 354.13820773 -340.33261508 361.52232409 -332.30664062 368.53662109 C-331.78553711 369.00583984 -331.26443359 369.47505859 -330.72753906 369.95849609 C-327.51197161 372.91645756 -327.51197161 372.91645756 -323.30664062 373.53662109 C-321.66050572 371.57771551 -321.66050572 371.57771551 -320.11914062 369.03662109 C-301.69355319 341.87509262 -265.33432049 331.4085304 -235.30664062 322.53662109 C-234.26137207 322.22611816 -233.21610352 321.91561523 -232.13916016 321.59570312 C-231.17478027 321.30937012 -230.21040039 321.02303711 -229.21679688 320.72802734 C-228.3111499 320.45853271 -227.40550293 320.18903809 -226.47241211 319.91137695 C-224.86121709 319.43592967 -223.24766958 318.96832651 -221.63110352 318.51147461 C-211.89848352 315.78415759 -211.89848352 315.78415759 -203.93164062 309.97412109 C-198.85845709 299.2423867 -197.90258537 287.17692549 -196.30664062 275.53662109 C-194.85257812 276.21724609 -194.85257812 276.21724609 -193.36914062 276.91162109 C-185.99883328 280.0422892 -178.63669866 280.92492387 -170.68164062 280.91162109 C-169.3892749 280.91246704 -169.3892749 280.91246704 -168.07080078 280.91333008 C-159.59838949 280.76990258 -150.96334433 279.36497295 -143.30664062 275.53662109 C-141.8439016 278.46209914 -142.07061766 281.21477864 -141.93164062 284.47412109 C-141.42762221 293.48925136 -140.02157112 304.14179748 -134.30664062 311.53662109 C-129.04728584 315.94079624 -123.10307147 317.21834976 -116.55664062 318.91162109 C-114.28628044 319.5257523 -112.01674915 320.14295582 -109.74804688 320.76318359 C-108.64090332 321.06514648 -107.53375977 321.36710937 -106.39306641 321.67822266 C-74.55025475 330.53436297 -43.55087628 342.43676941 -20.30664062 366.53662109 C-19.30799656 367.53797519 -18.3082334 368.53821641 -17.30664062 369.53662109 C3.26228985 350.50350409 21.53251071 330.8932808 35.69335938 306.53662109 C36.1909375 305.68326172 36.68851562 304.82990234 37.20117188 303.95068359 C52.71987482 276.39014558 62.68889302 246.89627319 66.69335938 215.53662109 C66.78834717 214.84592529 66.88333496 214.15522949 66.98120117 213.44360352 C74.60226889 150.20042385 55.2544799 87.38627245 16.20898438 37.57177734 C12.69734675 33.3349102 9.00809537 29.29628901 5.23632812 25.29052734 C3.44931438 23.35528205 1.76197223 21.43071311 0.09960938 19.39599609 C-1.84768792 17.08199996 -3.69118732 15.15740294 -5.99414062 13.22412109 C-8.16537989 11.3813719 -10.30516933 9.53800911 -12.37695312 7.58349609 C-44.67971839 -22.80586495 -85.60957579 -39.84150514 -128.30664062 -49.46337891 C-129.60988281 -49.77275391 -129.60988281 -49.77275391 -130.93945312 -50.08837891 C-145.38614567 -53.30994101 -160.01521582 -53.65206915 -174.74414062 -53.65087891 C-175.83795044 -53.65223846 -175.83795044 -53.65223846 -176.95385742 -53.65362549 C-230.15840749 -53.64614706 -284.75575022 -35.10924364 -325.72558594 -0.78417969 Z " fill="#FEFEFE" transform="translate(432.306640625,69.46337890625)"/>
<path d="M0 0 C0.03963867 0.58265625 0.07927734 1.1653125 0.12011719 1.765625 C2.36802632 33.36054671 11.68937164 53.79544714 35.33203125 75.1015625 C36.61610946 76.21088451 37.90120443 77.3190311 39.1875 78.42578125 C49.88760208 87.71918887 58.2512523 98.96013907 64.6875 111.5625 C65.02652344 112.21669922 65.36554688 112.87089844 65.71484375 113.54492188 C67.65347764 117.53308608 68.61787076 120.58663746 68 125 C57.06804418 150.11134557 33.16205342 180.07334335 10 195 C9.18208984 194.05640625 9.18208984 194.05640625 8.34765625 193.09375 C-1.37397184 182.05928667 -11.03398496 174.72077063 -24 168 C-25.36016235 167.29085449 -25.36016235 167.29085449 -26.74780273 166.56738281 C-33.82957765 162.94342213 -41.00608581 159.83241653 -48.4375 157 C-49.56422119 156.56848633 -50.69094238 156.13697266 -51.85180664 155.69238281 C-61.26588453 152.15122843 -70.78006929 149.31942391 -80.47998047 146.68994141 C-84.83789887 145.49681242 -89.17330479 144.23897527 -93.5 142.9375 C-94.28366943 142.71610352 -95.06733887 142.49470703 -95.87475586 142.26660156 C-101.53719124 140.53964911 -104.91913789 138.0930035 -108.29296875 133.078125 C-112.57110904 124.33502606 -113.28205551 115.78013355 -113.75390625 106.16015625 C-113.79267702 103.10096146 -113.79267702 103.10096146 -115 101 C-115.80824219 101.27714844 -116.61648438 101.55429687 -117.44921875 101.83984375 C-119.05216797 102.38318359 -119.05216797 102.38318359 -120.6875 102.9375 C-121.74324219 103.29714844 -122.79898438 103.65679687 -123.88671875 104.02734375 C-138.48732023 108.58888675 -154.0601855 106.58514316 -168 101 C-168.15033691 102.06528931 -168.15033691 102.06528931 -168.30371094 103.15209961 C-168.77222301 106.4160139 -169.26095645 109.67660141 -169.75 112.9375 C-169.90726563 114.05447266 -170.06453125 115.17144531 -170.2265625 116.32226562 C-171.62379394 125.48487949 -173.35855262 134.02169117 -181 140 C-183.96875 141.265625 -183.96875 141.265625 -187.5 142.25 C-188.91697946 142.66168534 -190.3336166 143.07454984 -191.75 143.48828125 C-192.56082031 143.7198291 -193.37164062 143.95137695 -194.20703125 144.18994141 C-252.3623908 159.69199723 -252.3623908 159.69199723 -295 199 C-299.30999066 198.5279534 -301.77202698 195.74433959 -304.75 192.875 C-305.82861042 191.85720675 -306.90803671 190.84027744 -307.98828125 189.82421875 C-308.5085791 189.33228027 -309.02887695 188.8403418 -309.56494141 188.33349609 C-311.3029009 186.71853612 -313.11166762 185.20188976 -314.9375 183.6875 C-323.80381509 175.94094727 -331.56797581 166.87668866 -338.8125 157.625 C-339.33424805 156.98377197 -339.85599609 156.34254395 -340.39355469 155.68188477 C-343.36579325 151.7708587 -344.6582732 148.94694997 -344.29907227 143.99609375 C-343.79684699 140.64409878 -343.04801932 137.42341163 -342.0625 134.1875 C-341.73415161 133.10214966 -341.73415161 133.10214966 -341.39916992 131.99487305 C-335.2052568 112.54403142 -324.86002113 96.82216143 -311 82 C-309.25553493 80.0247055 -307.52984111 78.03459639 -305.80859375 76.0390625 C-304.52105034 74.58744768 -303.19624157 73.16852576 -301.84765625 71.7734375 C-288.99429829 58.28290453 -283.3750851 42.97497608 -280.75 24.75 C-280.57726562 23.61175781 -280.40453125 22.47351563 -280.2265625 21.30078125 C-279.8082278 18.53512409 -279.39952681 15.76842532 -279 13 C-273 15 -273 15 -267 17 C-265.52034074 17.14573058 -264.03596157 17.24663268 -262.55078125 17.31640625 C-261.27944336 17.37924805 -261.27944336 17.37924805 -259.98242188 17.44335938 C-259.10134766 17.48267578 -258.22027344 17.52199219 -257.3125 17.5625 C-255.97348633 17.62727539 -255.97348633 17.62727539 -254.60742188 17.69335938 C-252.40509892 17.79935353 -250.20266527 17.90142051 -248 18 C-247.87471924 18.63800537 -247.74943848 19.27601074 -247.62036133 19.93334961 C-242.95194816 51.34142655 -242.95194816 51.34142655 -225.97265625 76.80859375 C-211.8128119 85.36057895 -195.25595387 88.48013439 -179 90 C-178.31268799 90.08540039 -177.62537598 90.17080078 -176.91723633 90.25878906 C-168.53103472 91.25052383 -160.12002275 91.24262095 -151.6875 91.25 C-150.8886438 91.25100708 -150.0897876 91.25201416 -149.26672363 91.25305176 C-136.62978527 91.24229369 -124.40106203 90.61648168 -112 88 C-111.29085449 87.85546387 -110.58170898 87.71092773 -109.85107422 87.56201172 C-88.85326059 83.1637223 -66.13199868 75.18080906 -53.62353516 56.78759766 C-50.99246159 52.27006412 -49.63574641 47.59388019 -48.3125 42.5625 C-48.02560303 41.52931641 -47.73870605 40.49613281 -47.44311523 39.43164062 C-44.88677324 30.04034868 -42.8149785 20.55963829 -41 11 C-39.83984375 11.04640625 -38.6796875 11.0928125 -37.484375 11.140625 C-23.8762146 11.5246321 -13.98047019 9.8304686 -2.86328125 1.390625 C-1 0 -1 0 0 0 Z " fill="#331510" transform="translate(404,244)"/>
<path d="M0 0 C1.24023422 -0.00160126 1.24023422 -0.00160126 2.50552368 -0.00323486 C32.74309824 0.05269944 67.38601021 4.90548314 91 25.4375 C91.763125 26.05753906 92.52625 26.67757812 93.3125 27.31640625 C121.68275869 51.2765446 138.12148761 87.11882177 141.6953125 123.625 C142.45594426 133.52610489 142.1554799 143.51668659 142 153.4375 C139.44597247 152.42101413 136.90174733 151.39539171 134.375 150.3125 C128.77064083 148.85951799 122.95361075 147.79605078 117.6875 150.72265625 C113.62603226 154.09952052 110.69205565 157.95808007 108.10546875 162.54296875 C106.88322038 164.63763469 105.46693535 166.50853383 104 168.4375 C102.65909207 164.6693169 101.3285821 160.89754479 100 157.125 C99.6184375 156.05314453 99.236875 154.98128906 98.84375 153.87695312 C98.30234375 152.33491211 98.30234375 152.33491211 97.75 150.76171875 C97.41484375 149.81385498 97.0796875 148.86599121 96.734375 147.8894043 C96 145.4375 96 145.4375 96 142.4375 C85.44 142.4375 74.88 142.4375 64 142.4375 C63.65219482 138.291875 63.65219482 138.291875 63.29736328 134.0625 C62.52601098 124.87416947 61.75106767 115.68614427 60.97441292 106.4982605 C60.50419019 100.93420313 60.03513263 95.37005292 59.56884766 89.80566406 C59.11780857 84.42374857 58.66356555 79.04211178 58.20721054 73.66064453 C58.03468373 71.61972432 57.86326179 69.57871036 57.6930275 67.53759766 C56.71305457 55.79749983 55.58316041 44.11322625 54 32.4375 C53.83323509 33.6541761 53.83323509 33.6541761 53.6631012 34.89543152 C51.97006148 47.22077888 50.26294584 59.52589508 47.9375 71.75 C46.5702351 78.95945339 45.45884993 86.15457768 44.5625 93.4375 C43.39785093 102.8945829 41.94399114 112.29070673 40.375 121.6875 C40.26463409 122.35346191 40.15426819 123.01942383 40.04055786 123.70556641 C38.18121583 134.89385252 38.18121583 134.89385252 37 138.4375 C21.16 138.4375 5.32 138.4375 -11 138.4375 C-15.5 129.4375 -15.5 129.4375 -16.921875 124.84375 C-17.37626953 123.39355469 -17.37626953 123.39355469 -17.83984375 121.9140625 C-18.29037109 120.44066406 -18.29037109 120.44066406 -18.75 118.9375 C-19.06582031 117.92429687 -19.38164062 116.91109375 -19.70703125 115.8671875 C-20.47746896 113.39244818 -21.24162771 110.91595785 -22 108.4375 C-22.12288464 118.8280794 -21.83360594 129.07696908 -21 139.4375 C-33.01214121 140.47080247 -44.94976471 140.55067227 -57 140.4375 C-59.19928793 133.05635273 -60.70429031 125.83010721 -61.625 118.1875 C-61.74979736 117.19548584 -61.87459473 116.20347168 -62.00317383 115.18139648 C-62.96852881 107.27470999 -63.6017154 99.39129253 -64 91.4375 C-66.4611221 102.66987496 -67.50986378 113.45376545 -67.6875 124.9375 C-67.72080216 126.45445397 -67.75530278 127.97138212 -67.79101562 129.48828125 C-67.87440639 133.13782971 -67.94188433 136.78745082 -68 140.4375 C-67.06027344 140.58445313 -67.06027344 140.58445313 -66.1015625 140.734375 C-65.28429687 140.88390625 -64.46703125 141.0334375 -63.625 141.1875 C-62.81289062 141.32671875 -62.00078125 141.4659375 -61.1640625 141.609375 C-59 142.4375 -59 142.4375 -57.7109375 144.515625 C-57.47632813 145.14984375 -57.24171875 145.7840625 -57 146.4375 C-58.11117187 146.53546875 -59.22234375 146.6334375 -60.3671875 146.734375 C-68.07833008 147.48520134 -75.03444533 148.25185195 -82.1171875 151.6328125 C-84 152.4375 -84 152.4375 -87 152.4375 C-85.45594148 147.03329519 -83.92956455 146.54547046 -79 142.4375 C-88.57 142.1075 -98.14 141.7775 -108 141.4375 C-108.33 145.7275 -108.66 150.0175 -109 154.4375 C-109.66666667 163.10416667 -110.33333333 171.77083333 -111 180.4375 C-113.19209248 178.24540752 -113.557042 177.11234907 -114.40234375 174.19140625 C-114.65306641 173.35416016 -114.90378906 172.51691406 -115.16210938 171.65429688 C-115.67767846 169.88941429 -116.19071382 168.1237895 -116.70117188 166.35742188 C-116.95318359 165.51888672 -117.20519531 164.68035156 -117.46484375 163.81640625 C-117.687771 163.0488501 -117.91069824 162.28129395 -118.14038086 161.49047852 C-119.10262475 159.19240727 -120.07013802 157.99828561 -122 156.4375 C-124.72486722 155.64587507 -124.72486722 155.64587507 -127.6875 155.25 C-129.45833333 154.97916667 -131.22916667 154.70833333 -133 154.4375 C-133.40184909 133.96304074 -129.37378691 114.11157072 -124 94.4375 C-123.80180664 93.70740723 -123.60361328 92.97731445 -123.39941406 92.22509766 C-117.40370539 70.82330334 -106.3415523 51.43890401 -91 35.4375 C-90.34257812 34.72851562 -89.68515625 34.01953125 -89.0078125 33.2890625 C-66.1236207 9.30201808 -32.12900185 -0.00885706 0 0 Z " fill="#341510" transform="translate(263,39.5625)"/>
<path d="M0 0 C0.89203125 0.27714844 1.7840625 0.55429687 2.703125 0.83984375 C3.87359375 1.20207031 5.0440625 1.56429688 6.25 1.9375 C7.41015625 2.29714844 8.5703125 2.65679687 9.765625 3.02734375 C23.77195766 7.23939306 38.3085092 5.63834178 52 1 C52.99 0.67 53.98 0.34 55 0 C56.14931287 3.44793862 56.21870744 6.36805868 56.375 10 C56.74926324 16.64938355 57.7647098 22.71702213 60 29 C60.26554688 29.763125 60.53109375 30.52625 60.8046875 31.3125 C62.80800796 36.13465191 65.01683526 37.8805274 69.65649414 40.0559082 C73.79258707 41.7221517 78.05694297 42.7890947 82.375 43.875 C89.55489991 45.75609637 96.65338763 47.75290803 103.6875 50.125 C104.36796387 50.35429199 105.04842773 50.58358398 105.74951172 50.81982422 C111.5296208 52.79608573 117.26392076 54.90006107 123 57 C125.33970249 71.64388263 126.29422471 86.00866039 126.25 100.8125 C126.24895264 101.57800171 126.24790527 102.34350342 126.24682617 103.13220215 C126.22078831 112.12635311 125.93031622 121.04624728 125 130 C121.77371408 131.3196608 118.54350696 132.62944528 115.3125 133.9375 C114.40048828 134.31068359 113.48847656 134.68386719 112.54882812 135.06835938 C111.66259766 135.42607422 110.77636719 135.78378906 109.86328125 136.15234375 C108.64572144 136.6472229 108.64572144 136.6472229 107.40356445 137.15209961 C104.94976176 138.01772244 102.56009574 138.55173421 100 139 C100.14362477 137.16649232 100.29002705 135.33320217 100.4375 133.5 C100.55931641 131.96859375 100.55931641 131.96859375 100.68359375 130.40625 C100.89991369 128.07747238 101.17493298 125.75360254 101.5 123.4375 C102.26386519 117.48634116 102.3616997 111.4910909 102.5625 105.5 C102.62727539 103.69402344 102.62727539 103.69402344 102.69335938 101.8515625 C102.79873168 98.90113807 102.90085903 95.95063929 103 93 C101.9275 93.28875 100.855 93.5775 99.75 93.875 C90.29412189 96.22440281 80.69908433 97.37327659 71 98.125 C69.39717163 98.25237549 69.39717163 98.25237549 67.76196289 98.38232422 C57.83120792 99.11498736 47.95118567 99.20013558 38 99 C37.71382813 99.91265625 37.42765625 100.8253125 37.1328125 101.765625 C36.22013666 104.37147188 35.31318798 106.42759275 33.875 108.75 C31.83342585 111.6633814 31.83342585 111.6633814 32 114 C32.825 114.5775 33.65 115.155 34.5 115.75 C37 118 37 118 37.5625 121 C37 124 37 124 35.4375 126.375 C32.04129157 128.63913895 29.99900698 128.64269755 26 128 C23.5 125.875 23.5 125.875 22 123 C22 119.18922621 22.43408051 117.59914583 25.0625 114.81640625 C25.701875 114.21699219 26.34125 113.61757813 27 113 C25.02819438 107.92887709 22.94749315 102.86340377 19 99 C13.49222179 96.98354923 8.24142132 97.18271968 2.4375 97.3125 C0.84658356 97.29714208 -0.74427416 97.27376504 -2.33496094 97.24267578 C-4.77924581 97.1952784 -7.22251227 97.15222814 -9.66720581 97.13397217 C-18.08444092 97.06151151 -26.38651047 96.26800745 -34.75 95.375 C-36.10091678 95.23664138 -37.45190781 95.09900554 -38.80297852 94.9621582 C-41.86949573 94.64877515 -44.93505511 94.32833995 -48 94 C-47.42054435 109.67138737 -46.78147083 125.33732928 -46 141 C-51.50027669 140.42329995 -56.17774911 139.01773344 -61.3125 137 C-62.02728516 136.72671875 -62.74207031 136.4534375 -63.47851562 136.171875 C-68.57882653 134.21058673 -68.57882653 134.21058673 -71 133 C-71.07761619 126.44286917 -71.12923626 119.8858612 -71.16479492 113.32836914 C-71.17965621 111.10892311 -71.19995096 108.88950518 -71.22631836 106.67016602 C-71.62849885 71.88549655 -71.62849885 71.88549655 -67 58 C-67.66 57.67 -68.32 57.34 -69 57 C-64.25118534 55.45466344 -59.50099178 53.91362655 -54.75 52.375 C-54.0452655 52.1465741 -53.34053101 51.91814819 -52.61444092 51.68280029 C-43.22640118 48.64287127 -33.83004843 45.65707517 -24.33105469 42.97802734 C-14.07388496 40.37554154 -14.07388496 40.37554154 -6.625 33.625 C-2.34230807 23.0934712 -1.33464361 11.21100628 0 0 Z " fill="#F8DCD1" transform="translate(235,344)"/>
<path d="M0 0 C0.37061895 15.98603075 -0.19015506 31.24479802 -3 47 C-24.52185178 53.31336043 -46.4747653 58.42793055 -69 59 C-69.81484863 59.02578125 -70.62969727 59.0515625 -71.46923828 59.078125 C-130.85529799 60.76313467 -130.85529799 60.76313467 -150 48 C-150.40427029 44.93865549 -150.60919352 42.07472222 -150.6875 39 C-150.73765259 37.63452026 -150.73765259 37.63452026 -150.78881836 36.24145508 C-151.16815511 24.49975095 -151.09077206 12.74590415 -151 1 C-141.23667596 0.77810627 -131.62165839 1.74132584 -121.91592407 2.65792847 C-113.24498035 3.47162044 -104.70989139 4.09042609 -95.99243164 4.05957031 C-85.14647598 4.07089867 -85.14647598 4.07089867 -81.4453125 7.0703125 C-79.80517047 9.6992483 -78.87144265 12.037095 -78 15 C-77.40022712 16.22105157 -76.77983485 17.43257148 -76.125 18.625 C-75.568125 19.800625 -75.568125 19.800625 -75 21 C-75.845625 21.70125 -76.69125 22.4025 -77.5625 23.125 C-80.35593293 25.77720966 -80.35593293 25.77720966 -79.9375 29.1875 C-79.20031442 32.09782797 -79.20031442 32.09782797 -77 34 C-74.78927023 34.24253813 -74.78927023 34.24253813 -72.375 34.125 C-71.55773437 34.10695313 -70.74046875 34.08890625 -69.8984375 34.0703125 C-69.27195312 34.04710937 -68.64546875 34.02390625 -68 34 C-67.34726674 30.97545382 -66.8506153 28.09973249 -67 25 C-69.26092815 22.37107214 -69.26092815 22.37107214 -72 21 C-71.70456299 20.28263672 -71.40912598 19.56527344 -71.10473633 18.82617188 C-69.97428439 16.06228963 -69.97428439 16.06228963 -69.24487305 13.37695312 C-68.17253854 10.35360111 -67.18718797 8.36627172 -65 6 C-59.9852047 4.45287394 -55.00813028 4.5129104 -49.8125 4.5 C-48.35425043 4.45988545 -46.89614153 4.41429132 -45.43823242 4.36328125 C-42.57743624 4.26527711 -39.71719604 4.18598998 -36.85546875 4.12109375 C-32.13797482 3.97292525 -27.49454099 3.57714398 -22.8125 3 C-21.77959839 2.8774585 -21.77959839 2.8774585 -20.72583008 2.75244141 C-15.26787321 2.08067224 -9.83238356 1.25784074 -4.40625 0.3671875 C-2 0 -2 0 0 0 Z " fill="#F9DDD2" transform="translate(338,437)"/>
<path d="M0 0 C-0.19335938 1.11632812 -0.38671875 2.23265625 -0.5859375 3.3828125 C-2.68673361 15.88086062 -4.00022455 28.36908468 -5 41 C-1.38564333 41.27889068 2.22879208 41.55674492 5.84326172 41.83416748 C7.32798536 41.94832851 8.81268452 42.06280816 10.29736328 42.17755127 C15.45905275 42.57644475 20.62114742 42.96949709 25.78369141 43.35717773 C27.59469924 43.49406948 29.40557336 43.63274176 31.21630859 43.77319336 C40.73549281 44.5104011 50.12890769 45.20134929 59.68164062 44.85522461 C62 45 62 45 64 47 C64 47.33 64 47.66 64 48 C70.93 48.495 70.93 48.495 78 49 C78 48.34 78 47.68 78 47 C79.32 47 80.64 47 82 47 C82.28875 46.030625 82.5775 45.06125 82.875 44.0625 C84 41 84 41 86 40 C85.01 42.97 85.01 42.97 84 46 C88.95848452 45.75918034 93.91650073 45.51053981 98.87426758 45.25537109 C100.5525511 45.17001026 102.23093533 45.08660165 103.90942383 45.00537109 C115.35156523 44.44989405 126.6382143 43.47706852 138 42 C140.64 41.67 143.28 41.34 146 41 C144.02 20.21 144.02 20.21 142 -1 C150.11598206 1.49722525 158.07243179 4.01326087 166 7 C168.33970249 21.64388263 169.29422471 36.00866039 169.25 50.8125 C169.24895264 51.57800171 169.24790527 52.34350342 169.24682617 53.13220215 C169.22078831 62.12635311 168.93031622 71.04624728 168 80 C164.77371408 81.3196608 161.54350696 82.62944528 158.3125 83.9375 C157.40048828 84.31068359 156.48847656 84.68386719 155.54882812 85.06835938 C154.66259766 85.42607422 153.77636719 85.78378906 152.86328125 86.15234375 C152.05157471 86.48226318 151.23986816 86.81218262 150.40356445 87.15209961 C147.94976176 88.01772244 145.56009574 88.55173421 143 89 C143.14362477 87.16649232 143.29002705 85.33320217 143.4375 83.5 C143.55931641 81.96859375 143.55931641 81.96859375 143.68359375 80.40625 C143.89991369 78.07747238 144.17493298 75.75360254 144.5 73.4375 C145.26386519 67.48634116 145.3616997 61.4910909 145.5625 55.5 C145.62727539 53.69402344 145.62727539 53.69402344 145.69335938 51.8515625 C145.79873168 48.90113807 145.90085903 45.95063929 146 43 C144.9275 43.28875 143.855 43.5775 142.75 43.875 C133.29412189 46.22440281 123.69908433 47.37327659 114 48.125 C112.39717163 48.25237549 112.39717163 48.25237549 110.76196289 48.38232422 C100.83120792 49.11498736 90.95118567 49.20013558 81 49 C80.71382813 49.91265625 80.42765625 50.8253125 80.1328125 51.765625 C79.22013666 54.37147188 78.31318798 56.42759275 76.875 58.75 C74.83342585 61.6633814 74.83342585 61.6633814 75 64 C75.825 64.5775 76.65 65.155 77.5 65.75 C80 68 80 68 80.5625 71 C80 74 80 74 78.4375 76.375 C75.04129157 78.63913895 72.99900698 78.64269755 69 78 C66.5 75.875 66.5 75.875 65 73 C65 69.18922621 65.43408051 67.59914583 68.0625 64.81640625 C68.701875 64.21699219 69.34125 63.61757813 70 63 C68.02819438 57.92887709 65.94749315 52.86340377 62 49 C56.49222179 46.98354923 51.24142132 47.18271968 45.4375 47.3125 C43.84658356 47.29714208 42.25572584 47.27376504 40.66503906 47.24267578 C38.22075419 47.1952784 35.77748773 47.15222814 33.33279419 47.13397217 C24.91555908 47.06151151 16.61348953 46.26800745 8.25 45.375 C6.89908322 45.23664138 5.54809219 45.09900554 4.19702148 44.9621582 C1.13050427 44.64877515 -1.93505511 44.32833995 -5 44 C-4.42054435 59.67138737 -3.78147083 75.33732928 -3 91 C-8.50027669 90.42329995 -13.17774911 89.01773344 -18.3125 87 C-19.02728516 86.72671875 -19.74207031 86.4534375 -20.47851562 86.171875 C-25.57882653 84.21058673 -25.57882653 84.21058673 -28 83 C-28.07761619 76.44286917 -28.12923626 69.8858612 -28.16479492 63.32836914 C-28.17965621 61.10892311 -28.19995096 58.88950518 -28.22631836 56.67016602 C-28.62849885 21.88549655 -28.62849885 21.88549655 -24 8 C-24.66 7.67 -25.32 7.34 -26 7 C-22.04573359 5.63374627 -18.08601051 4.28406373 -14.125 2.9375 C-12.99707031 2.54755859 -11.86914062 2.15761719 -10.70703125 1.75585938 C-9.63066406 1.39169922 -8.55429688 1.02753906 -7.4453125 0.65234375 C-5.95281982 0.14175415 -5.95281982 0.14175415 -4.43017578 -0.37915039 C-2 -1 -2 -1 0 0 Z " fill="#80A8C4" transform="translate(192,394)"/>
<path d="M0 0 C7.53153056 4.40718684 12.85192517 9.31088567 17 17 C17.40089844 17.60328125 17.80179687 18.2065625 18.21484375 18.828125 C20.29472459 24.58142722 17.06465566 32.48156432 15.6875 38.3125 C15.48705078 39.19873047 15.28660156 40.08496094 15.08007812 40.99804688 C13.09773035 49.41228463 10.64124342 58.26756716 5 65 C-5.09165354 70.86406895 -16.85088899 71.55806902 -28.10546875 69.40625 C-38.4179393 66.26451003 -45.82183435 58.63908429 -50.8828125 49.33203125 C-55.3332898 40.04204891 -55.01134513 30.35041526 -52.03515625 20.6328125 C-48.13903562 10.72343399 -40.96129237 3.62625017 -31.4375 -0.9375 C-21.5823527 -4.712607 -9.59051655 -4.63956807 0 0 Z " fill="#FD8E81" transform="translate(343,240)"/>
<path d="M0 0 C5.70170259 3.71076632 9.85637731 7.71126475 13.37890625 13.5234375 C13.79140625 14.1421875 14.20390625 14.7609375 14.62890625 15.3984375 C19.19587661 23.51749591 18.67041704 34.75517302 16.68359375 43.62890625 C13.01321108 53.57595172 6.29840519 60.83456555 -2.98046875 65.78125 C-11.58622466 69.51041089 -22.49504983 70.35468119 -31.53515625 67.65234375 C-33.87109375 66.5859375 -33.87109375 66.5859375 -35.76171875 65.49609375 C-38.0061602 64.32200568 -40.13324099 63.93093062 -42.62109375 63.5234375 C-47.57449249 49.57677793 -51.97811495 35.40839665 -52.62109375 20.5234375 C-53.61109375 20.1934375 -54.60109375 19.8634375 -55.62109375 19.5234375 C-54.96109375 19.5234375 -54.30109375 19.5234375 -53.62109375 19.5234375 C-53.51925781 18.78996094 -53.41742188 18.05648438 -53.3125 17.30078125 C-51.59137451 10.38710769 -45.49580742 4.73710107 -39.76171875 0.80859375 C-27.5302689 -6.53474019 -12.55927134 -7.07511858 0 0 Z " fill="#FD8E81" transform="translate(208.62109375,241.4765625)"/>
<path d="M0 0 C0.89203125 0.27714844 1.7840625 0.55429687 2.703125 0.83984375 C3.87359375 1.20207031 5.0440625 1.56429688 6.25 1.9375 C7.41015625 2.29714844 8.5703125 2.65679687 9.765625 3.02734375 C23.77195766 7.23939306 38.3085092 5.63834178 52 1 C52.99 0.67 53.98 0.34 55 0 C56.14931287 3.44793862 56.21870744 6.36805868 56.375 10 C56.74926324 16.64938355 57.7647098 22.71702213 60 29 C60.39832031 30.1446875 60.39832031 30.1446875 60.8046875 31.3125 C62.71814996 35.91835654 64.84128754 38.17100458 69.4296875 40.125 C74.88951497 41.98366467 80.42523575 43.52801169 86 45 C79.04534427 50.47460313 69.05023694 56 60 56 C59.34 57.32 58.68 58.64 58 60 C58 59.01 58 58.02 58 57 C57.29617188 57.30679688 56.59234375 57.61359375 55.8671875 57.9296875 C40.1121418 63.81099884 18.87117586 62.74169805 3 58 C1.62714844 57.76603516 1.62714844 57.76603516 0.2265625 57.52734375 C-0.50820312 57.35332031 -1.24296875 57.17929687 -2 57 C-2.33 56.34 -2.66 55.68 -3 55 C-4.49330439 54.19658477 -6.02080357 53.4561205 -7.5625 52.75 C-12.52466803 50.35816361 -16.73531722 47.46654382 -21 44 C-18.72640098 41.40678961 -16.79587344 40.43027665 -13.5625 39.3125 C-9.30417706 37.45595402 -7.51028506 35.80199644 -5.765625 31.51171875 C-2.63403074 21.23817226 -1.26570063 10.63188527 0 0 Z " fill="#FB9F91" transform="translate(235,344)"/>
<path d="M0 0 C-0.08564209 0.53101318 -0.17128418 1.06202637 -0.25952148 1.60913086 C-3.98943582 25.91024051 -3.7412749 50.47197196 -4 75 C-21.52716245 67.48912701 -21.52716245 67.48912701 -29 63.25 C-29.73710205 62.83661377 -30.4742041 62.42322754 -31.23364258 61.99731445 C-39.14886802 57.4754154 -46.59943292 52.31037687 -54 47 C-55.31891829 46.05846469 -56.63792571 45.1170542 -57.95703125 44.17578125 C-58.96121094 43.45777344 -59.96539062 42.73976563 -61 42 C-60.01 41.505 -60.01 41.505 -59 41 C-58.57074219 39.88238281 -58.57074219 39.88238281 -58.1328125 38.7421875 C-51.25892588 22.10264127 -30.05566298 12.32302576 -14.9375 5 C-13.41950806 4.25991699 -13.41950806 4.25991699 -11.87084961 3.50488281 C-10.91186768 3.04952148 -9.95288574 2.59416016 -8.96484375 2.125 C-8.1049585 1.71507812 -7.24507324 1.30515625 -6.35913086 0.8828125 C-4 0 -4 0 0 0 Z " fill="#F8DCD1" transform="translate(168,402)"/>
<path d="M0 0 C21.66511587 4.99964212 42.06622501 19.0672337 56 36 C54.46470435 40.40118085 51.02237649 42.5352151 47.375 45.125 C46.70694336 45.60509521 46.03888672 46.08519043 45.35058594 46.57983398 C34.86507721 54.02806808 23.98835368 60.60525587 12.625 66.625 C11.79774414 67.06336182 10.97048828 67.50172363 10.11816406 67.95336914 C4.25713192 71 4.25713192 71 2 71 C2.00444122 70.45115143 2.00888245 69.90230286 2.01345825 69.33682251 C2.05835032 63.52730973 2.08813361 57.71784762 2.10986328 51.90820312 C2.11980595 49.75160719 2.1333648 47.5950243 2.15087891 45.43847656 C2.24614992 33.38949567 2.04526634 21.60955528 0.43310547 9.65771484 C0.04634041 6.39135962 -0.08112218 3.28385137 0 0 Z " fill="#F9DDD2" transform="translate(358,402)"/>
<path d="M0 0 C8.09989305 2.42095373 16.08818498 5.01919594 24 8 C26.33970249 22.64388263 27.29422471 37.00866039 27.25 51.8125 C27.24895264 52.57800171 27.24790527 53.34350342 27.24682617 54.13220215 C27.22078831 63.12635311 26.93031622 72.04624728 26 81 C22.77371408 82.3196608 19.54350696 83.62944528 16.3125 84.9375 C14.94448242 85.49727539 14.94448242 85.49727539 13.54882812 86.06835938 C12.66259766 86.42607422 11.77636719 86.78378906 10.86328125 87.15234375 C10.05157471 87.48226318 9.23986816 87.81218262 8.40356445 88.15209961 C5.94976176 89.01772244 3.56009574 89.55173421 1 90 C1.14362477 88.16649232 1.29002705 86.33320217 1.4375 84.5 C1.51871094 83.4790625 1.59992188 82.458125 1.68359375 81.40625 C1.90314629 79.042672 2.18194736 76.68414476 2.50708008 74.33276367 C3.05552164 69.97039165 3.17798 65.66254794 3.203125 61.26953125 C3.20991272 60.44824738 3.21670044 59.6269635 3.22369385 58.78079224 C3.24062086 56.12465599 3.24689192 53.46868668 3.25 50.8125 C3.25233643 49.90847443 3.25467285 49.00444885 3.25708008 48.07302856 C3.27284237 31.87207782 2.19847259 16.05781527 0 0 Z " fill="#7FA8C5" transform="translate(334,393)"/>
<path d="M0 0 C4.98246668 1.08632397 9.94580586 2.22213027 14.8984375 3.4375 C27.92126002 6.59861249 40.62455595 9.06533042 54 10 C54.33 9.01 54.66 8.02 55 7 C55.495 8.98 55.495 8.98 56 11 C74.81 11.495 74.81 11.495 94 12 C94.66 10.35 95.32 8.7 96 7 C96.495 7.99 96.495 7.99 97 9 C96.67 9.66 96.34 10.32 96 11 C100.76528551 10.47112259 105.53005722 9.93788469 110.29443359 9.40087891 C111.90986442 9.21938787 113.52542168 9.03901798 115.14111328 8.85986328 C123.65022223 7.91557903 132.10677919 6.93593076 140.52832031 5.36279297 C143.05485486 4.99194841 145.45023806 4.93651333 148 5 C148 5.66 148 6.32 148 7 C129.92826073 10.88598986 112.5094502 13.45391022 94 13 C93.67 13.99 93.34 14.98 93 16 C92.34 16 91.68 16 91 16 C90.62875 17.2684375 90.62875 17.2684375 90.25 18.5625 C88.86026373 22.38427474 87.08879162 25.51868063 85 29 C83.68 29 82.36 29 81 29 C81 29.66 81 30.32 81 31 C76.20400916 31.59128654 71.77016119 31.88080841 67 31 C62.94176988 27.2047375 61.16239954 22.34953766 60 17 C59.34 17 58.68 17 58 17 C57.505 15.02 57.505 15.02 57 13 C56.14664063 12.98582031 55.29328125 12.97164063 54.4140625 12.95703125 C35.94250926 12.25244623 17.25262935 8.69037607 0 2 C-0.33 2.99 -0.66 3.98 -1 5 C-0.67 3.35 -0.34 1.7 0 0 Z " fill="#F9DDD2" transform="translate(189,412)"/>
<path d="M0 0 C0 3.63 0 7.26 0 11 C-9.31691221 15.43662486 -17.54470298 17.37929501 -27.875 17.3125 C-28.74979004 17.30903564 -29.62458008 17.30557129 -30.52587891 17.30200195 C-39.4492299 17.15209231 -47.21042737 15.42110879 -55 11 C-55 8.36 -55 5.72 -55 3 C-53.98276855 2.98018066 -52.96553711 2.96036133 -51.91748047 2.93994141 C-48.07416666 2.86276689 -44.23117775 2.77424222 -40.38818359 2.68261719 C-38.73785912 2.64478189 -37.08746481 2.60985813 -35.43701172 2.578125 C-26.1212324 2.39690619 -17.09116765 1.96221367 -7.88720703 0.41552734 C-5 0 -5 0 0 0 Z " fill="#A75237" transform="translate(290,333)"/>
<path d="M0 0 C0.495 0.99 0.495 0.99 1 2 C0.0625 4.125 0.0625 4.125 -1 6 C3.95848452 5.75918034 8.91650073 5.51053981 13.87426758 5.25537109 C15.5525511 5.17001026 17.23093533 5.08660165 18.90942383 5.00537109 C30.35156523 4.44989405 41.6382143 3.47706852 53 2 C55.66639515 1.66446545 58.3332115 1.33239898 61 1 C61 1.66 61 2.32 61 3 C50.48158275 5.83188157 39.84828983 7.2842079 29 8.125 C27.93144775 8.20991699 26.86289551 8.29483398 25.76196289 8.38232422 C15.83120792 9.11498736 5.95118567 9.20013558 -4 9 C-4.28617187 9.91265625 -4.57234375 10.8253125 -4.8671875 11.765625 C-5.77986334 14.37147188 -6.68681202 16.42759275 -8.125 18.75 C-10.16657415 21.6633814 -10.16657415 21.6633814 -10 24 C-9.175 24.5775 -8.35 25.155 -7.5 25.75 C-5 28 -5 28 -4.4375 31 C-5 34 -5 34 -6.5625 36.375 C-9.95870843 38.63913895 -12.00099302 38.64269755 -16 38 C-18.5 35.875 -18.5 35.875 -20 33 C-20 29.18922621 -19.56591949 27.59914583 -16.9375 24.81640625 C-15.9784375 23.91728516 -15.9784375 23.91728516 -15 23 C-16.97180562 17.92887709 -19.05250685 12.86340377 -23 9 C-28.50777821 6.98354923 -33.75857868 7.18271968 -39.5625 7.3125 C-41.15341644 7.29714208 -42.74427416 7.27376504 -44.33496094 7.24267578 C-46.77924581 7.1952784 -49.22251227 7.15222814 -51.66720581 7.13397217 C-60.08444092 7.06151151 -68.38651047 6.26800745 -76.75 5.375 C-78.10091678 5.23664138 -79.45190781 5.09900554 -80.80297852 4.9621582 C-83.86949573 4.64877515 -86.93505511 4.32833995 -90 4 C-90 3.01 -90 2.02 -90 1 C-89.29939453 1.05406006 -88.59878906 1.10812012 -87.87695312 1.16381836 C-84.97025407 1.3877809 -82.06350335 1.6110636 -79.15673828 1.83416748 C-77.67201464 1.94832851 -76.18731548 2.06280816 -74.70263672 2.17755127 C-69.54094725 2.57644475 -64.37885258 2.96949709 -59.21630859 3.35717773 C-57.40530076 3.49406948 -55.59442664 3.63274176 -53.78369141 3.77319336 C-44.26450719 4.5104011 -34.87109231 5.20134929 -25.31835938 4.85522461 C-23 5 -23 5 -21 7 C-21 7.33 -21 7.66 -21 8 C-14.07 8.495 -14.07 8.495 -7 9 C-7 8.34 -7 7.68 -7 7 C-5.68 7 -4.36 7 -3 7 C-2.5359375 5.5459375 -2.5359375 5.5459375 -2.0625 4.0625 C-1 1 -1 1 0 0 Z " fill="#E3C6BC" transform="translate(277,434)"/>
<path d="M0 0 C0.85980469 0.09667969 1.71960938 0.19335938 2.60546875 0.29296875 C4.8125 0.8125 4.8125 0.8125 6.8125 2.8125 C-3.78531348 9.19735553 -14.14647806 14.31109094 -26.01220703 17.94726562 C-31.57947962 19.69230125 -31.57947962 19.69230125 -35.31640625 24.046875 C-35.60386719 24.95953125 -35.89132812 25.8721875 -36.1875 26.8125 C-36.6825 25.3275 -36.6825 25.3275 -37.1875 23.8125 C-36.8575 23.1525 -36.5275 22.4925 -36.1875 21.8125 C-37.66283203 22.0290625 -37.66283203 22.0290625 -39.16796875 22.25 C-47.51512057 23.39640746 -55.75873961 24.02636061 -64.1875 24.0625 C-65.04625732 24.07152344 -65.90501465 24.08054687 -66.78979492 24.08984375 C-72.52789821 24.06318847 -77.62486662 23.22558832 -83.1875 21.8125 C-83.6825 23.2975 -83.6825 23.2975 -84.1875 24.8125 C-84.6825 22.8325 -84.6825 22.8325 -85.1875 20.8125 C-85.73535156 20.80992187 -86.28320312 20.80734375 -86.84765625 20.8046875 C-99.85817959 20.17002783 -112.87825701 13.53327506 -123.1875 5.8125 C-125.55078125 3.06640625 -125.55078125 3.06640625 -127.1875 0.8125 C-123.11364131 1.4156684 -120.23374704 3.71051368 -116.9375 6 C-108.28958474 11.79691603 -98.50525785 16.06976931 -88.1875 17.8125 C-87.6925 16.3275 -87.6925 16.3275 -87.1875 14.8125 C-86.93677734 15.45727295 -86.68605469 16.1020459 -86.42773438 16.76635742 C-85.81381836 17.779198 -85.81381836 17.779198 -85.1875 18.8125 C-78.11298403 20.17132471 -70.87451854 20.00422331 -63.6875 20 C-62.55070801 20.00064453 -61.41391602 20.00128906 -60.24267578 20.00195312 C-51.10509317 19.94510969 -42.20974746 19.21987008 -33.1875 17.8125 C-32.8575 16.4925 -32.5275 15.1725 -32.1875 13.8125 C-31.5275 13.8125 -30.8675 13.8125 -30.1875 13.8125 C-30.06616699 12.87869507 -30.06616699 12.87869507 -29.94238281 11.92602539 C-29.1875 9.8125 -29.1875 9.8125 -27.40917969 8.76342773 C-26.65024414 8.51020752 -25.89130859 8.2569873 -25.109375 7.99609375 C-24.27792969 7.70669922 -23.44648438 7.41730469 -22.58984375 7.11914062 C-21.27693359 6.68891602 -21.27693359 6.68891602 -19.9375 6.25 C-18.22233771 5.67013629 -16.5087405 5.08561908 -14.796875 4.49609375 C-13.98774658 4.21773682 -13.17861816 3.93937988 -12.3449707 3.65258789 C-10.00654007 2.81764383 -10.00654007 2.81764383 -7.40234375 1.0859375 C-4.64668541 -0.49844455 -3.12046612 -0.40127023 0 0 Z " fill="#FEBDC3" transform="translate(324.1875,390.1875)"/>
<path d="M0 0 C3.16118708 1.63913404 5.26864575 3.00269875 7.375 5.875 C8.68793627 10.33898332 8.46861427 13.09748363 6.3125 17.25 C3.12632853 21.03896067 0.87550604 21.7605737 -3.9375 22.375 C-7.89405216 21.89052423 -9.93505417 20.50768296 -13 18 C-15.35242347 14.79214982 -15.4684209 11.90350748 -15 8 C-11.29891857 1.36357813 -7.66835143 -1.18866695 0 0 Z " fill="#391914" transform="translate(306,206)"/>
<path d="M0 0 C3.70390021 2.02666238 5.65363011 3.48044516 8 7 C8.46287185 11.99901603 8.10431905 15.00873265 5 19 C2.45647704 21.83700638 0.24381351 22.27411509 -3.4375 22.5 C-7.18421347 22.38889482 -7.8933476 22.08443315 -11 19.625 C-13.80332533 15.9456355 -14.34004055 13.71664019 -14.2890625 9.03515625 C-13.83609822 5.84604286 -12.26079568 4.19620152 -10 2 C-6.24543433 -0.50304378 -4.45254066 -0.45280074 0 0 Z " fill="#371812" transform="translate(204,208)"/>
<path d="M0 0 C4.98246668 1.08632397 9.94580586 2.22213027 14.8984375 3.4375 C27.92126002 6.59861249 40.62455595 9.06533042 54 10 C54.33 9.01 54.66 8.02 55 7 C55.495 8.98 55.495 8.98 56 11 C74.81 11.495 74.81 11.495 94 12 C94.66 10.35 95.32 8.7 96 7 C96.495 7.99 96.495 7.99 97 9 C96.67 9.66 96.34 10.32 96 11 C100.76528551 10.47112259 105.53005722 9.93788469 110.29443359 9.40087891 C111.90986442 9.21938787 113.52542168 9.03901798 115.14111328 8.85986328 C123.65022223 7.91557903 132.10677919 6.93593076 140.52832031 5.36279297 C143.05485486 4.99194841 145.45023806 4.93651333 148 5 C148 5.66 148 6.32 148 7 C129.92826073 10.88598986 112.5094502 13.45391022 94 13 C93.67 13.99 93.34 14.98 93 16 C92.505 15.01 92.505 15.01 92 14 C81.11 14 70.22 14 59 14 C58.67 14.99 58.34 15.98 58 17 C57.505 15.02 57.505 15.02 57 13 C56.14664063 12.98582031 55.29328125 12.97164063 54.4140625 12.95703125 C35.94250926 12.25244623 17.25262935 8.69037607 0 2 C-0.33 2.99 -0.66 3.98 -1 5 C-0.67 3.35 -0.34 1.7 0 0 Z " fill="#FEBCC3" transform="translate(189,412)"/>
<path d="M0 0 C7.16617314 1.34947416 14.12838204 3.59493371 21 6 C14.04534427 11.47460313 4.05023694 17 -5 17 C-5.66 18.32 -6.32 19.64 -7 21 C-6.25117431 16.60915843 -4.91962397 12.4601991 -3.5 8.25 C-3.27441406 7.56550781 -3.04882812 6.88101562 -2.81640625 6.17578125 C-1.12672061 1.12672061 -1.12672061 1.12672061 0 0 Z " fill="#F0988B" transform="translate(300,383)"/>
<path d="M0 0 C0.66 0 1.32 0 2 0 C1.57531794 7.15253996 1.00030278 14.16464813 -0.0625 21.25 C-1.06032949 28.80073955 -1.18698075 36.26275989 -1.1875 43.875 C-1.1882251 45.03547852 -1.1889502 46.19595703 -1.18969727 47.39160156 C-1.41549037 52.86755124 -1.41549037 52.86755124 0 58 C7.46588133 58.30312601 13.31716327 58.48669743 20 55 C20.99 55 21.98 55 23 55 C23 55.66 23 56.32 23 57 C15.81872358 61.28114556 10.45870694 62.75401764 2 62 C-1.16920414 60.74552336 -2.47539166 59.95992164 -4.1015625 56.984375 C-5.36833549 52.77648558 -5.38167502 48.81238407 -5.375 44.4375 C-5.37556396 43.49600098 -5.37612793 42.55450195 -5.37670898 41.58447266 C-5.17345782 27.85446804 -3.55767977 13.29334263 0 0 Z " fill="#5C312A" transform="translate(240,198)"/>
<path d="M0 0 C2.20194268 1.55807105 3.34798846 2.79731795 5 5 C5 6.32 5 7.64 5 9 C1.90691927 8.50111601 -0.84196036 7.68054243 -3.75 6.5625 C-10.87372097 4.08679459 -18.5384103 3.72816891 -26 3 C-24.60040703 -0.30440486 -24.14116226 -0.92249915 -20.8125 -2.75 C-13.26108399 -5.56235864 -6.89843241 -3.60070205 0 0 Z " fill="#3D1B16" transform="translate(320,185)"/>
<path d="M0 0 C4.18736668 -0.08760181 8.37449531 -0.14059435 12.5625 -0.1875 C13.74392578 -0.21263672 14.92535156 -0.23777344 16.14257812 -0.26367188 C27.54184975 -0.35946407 27.54184975 -0.35946407 33 3 C33.495 4.485 33.495 4.485 34 6 C32.88882813 6.09796875 31.77765625 6.1959375 30.6328125 6.296875 C22.92166992 7.04770134 15.96555467 7.81435195 8.8828125 11.1953125 C7 12 7 12 4 12 C5.4317521 6.98886765 7.98445693 5.05530451 12 2 C8.04 1.67 4.08 1.34 0 1 C0 0.67 0 0.34 0 0 Z " fill="#45211B" transform="translate(172,180)"/>
<path d="M0 0 C1.8253125 0.3403125 1.8253125 0.3403125 3.6875 0.6875 C-4.4114048 9.69285157 -18.03581666 13.26027271 -29.3125 16.6875 C-30.3125 13.6875 -30.3125 13.6875 -29.63598633 11.61352539 C-27.99847428 9.23050886 -26.85555555 8.78454154 -24.13671875 7.87109375 C-23.30849609 7.58169922 -22.48027344 7.29230469 -21.62695312 6.99414062 C-20.32661133 6.56391602 -20.32661133 6.56391602 -19 6.125 C-12.52876999 4.00362668 -12.52876999 4.00362668 -6.4765625 0.953125 C-3.94466702 -0.52762254 -2.83994247 -0.5294808 0 0 Z " fill="#F9DBD0" transform="translate(323.3125,390.3125)"/>
<path d="M0 0 C1.29373535 0.12552246 2.5874707 0.25104492 3.92041016 0.38037109 C18.39066629 1.755809 32.86656493 2.7548031 47.375 3.625 C49.58725775 3.76011955 51.79949745 3.89553491 54.01171875 4.03125 C59.34094377 4.3575582 64.67037547 4.68028665 70 5 C70 5.66 70 6.32 70 7 C52.90567492 7.50448632 36.24347256 6.91386283 19.25 5.0625 C18.4028241 4.97109741 17.55564819 4.87969482 16.68280029 4.78552246 C14.27199922 4.52195544 11.86236783 4.25008121 9.453125 3.97265625 C8.36449661 3.84912529 8.36449661 3.84912529 7.25387573 3.72309875 C2.2396352 3.1198176 2.2396352 3.1198176 0 2 C0 1.34 0 0.68 0 0 Z " fill="#FEBDC4" transform="translate(187,459)"/>
<path d="M0 0 C6.74796945 4.85440659 6.74796945 4.85440659 7.6875 9.125 C6.83213866 12.70196561 6.06653959 13.95564027 3 16 C-0.5 16.5625 -0.5 16.5625 -4 16 C-6.5 13.875 -6.5 13.875 -8 11 C-8.1875 8 -8.1875 8 -7 5 C-4.83589463 3.03169464 -2.51550043 1.48434229 0 0 Z " fill="#3C1E19" transform="translate(265,456)"/>
<path d="M0 0 C0.33 0 0.66 0 1 0 C1 2.64 1 5.28 1 8 C0.03707031 8.04898437 -0.92585938 8.09796875 -1.91796875 8.1484375 C-3.34117643 8.2233796 -4.76435026 8.29896556 -6.1875 8.375 C-6.9719751 8.41681396 -7.7564502 8.45862793 -8.56469727 8.50170898 C-13.70900087 8.7869348 -18.84642737 9.12825855 -23.984375 9.51171875 C-37.68772717 10.52919582 -51.25749697 11.30805113 -65 11 C-65 10.34 -65 9.68 -65 9 C-63.77708252 8.91959473 -62.55416504 8.83918945 -61.29418945 8.75634766 C-56.64749842 8.45000784 -52.00108547 8.13960373 -47.35473633 7.828125 C-45.3642473 7.6952234 -43.37368953 7.56334631 -41.38305664 7.43261719 C-27.56192545 6.52402196 -13.78129722 5.38891656 0 4 C0 2.68 0 1.36 0 0 Z " fill="#FEBEC4" transform="translate(337,455)"/>
<path d="M0 0 C1.18441681 0.09257835 1.18441681 0.09257835 2.39276123 0.18702698 C9.10281745 0.70787191 15.81390034 1.20461329 22.52789307 1.67185974 C27.20906534 1.99878687 31.88942675 2.33674483 36.56982422 2.67456055 C39.04452494 2.85137179 41.51946814 3.02481835 43.99462891 3.19506836 C47.58565638 3.44279872 51.17563316 3.7025857 54.765625 3.96484375 C55.87899231 4.03887924 56.99235962 4.11291473 58.13946533 4.18919373 C59.15852966 4.26589798 60.17759399 4.34260223 61.22753906 4.42163086 C62.12764709 4.485233 63.02775513 4.54883514 63.95513916 4.61436462 C64.62994324 4.7416243 65.30474731 4.86888397 66 5 C66.495 5.99 66.495 5.99 67 7 C51.57484052 7.27297812 36.47363646 6.49424818 21.125 5 C19.05737838 4.80636353 16.98966996 4.61365157 14.921875 4.421875 C9.94685779 3.95850033 4.97316138 3.48286861 0 3 C0 2.01 0 1.02 0 0 Z " fill="#FEBDC4" transform="translate(187,435)"/>
<path d="M0 0 C0 0.66 0 1.32 0 2 C-10.54013904 4.83772974 -21.19176057 6.28567378 -32.0625 7.125 C-33.66919556 7.25237549 -33.66919556 7.25237549 -35.30834961 7.38232422 C-44.88421225 8.08964438 -54.40431476 8.20586691 -64 8 C-61.65904778 5.65904778 -61.02321278 5.69226423 -57.83251953 5.4375 C-56.97046906 5.36402344 -56.10841858 5.29054688 -55.22024536 5.21484375 C-54.28389252 5.14394531 -53.34753967 5.07304687 -52.3828125 5 C-51.41528046 4.91878906 -50.44774841 4.83757812 -49.45089722 4.75390625 C-46.34290055 4.49405023 -43.23410678 4.24618971 -40.125 4 C-36.06456887 3.67291681 -32.00469128 3.33989596 -27.9453125 3 C-26.48644623 2.87842529 -26.48644623 2.87842529 -24.99810791 2.75439453 C-19.03796486 2.23706769 -13.17490826 1.52937124 -7.30029297 0.3671875 C-4.83248686 -0.02673952 -2.4948797 -0.06213621 0 0 Z " fill="#FEBEC4" transform="translate(338,435)"/>
<path d="M0 0 C0.99 1.98 0.99 1.98 2 4 C0.02249322 4.48597153 -1.9571165 4.96338757 -3.9375 5.4375 C-5.03964844 5.70433594 -6.14179688 5.97117188 -7.27734375 6.24609375 C-15.72765854 7.95743767 -24.09821336 8.18984454 -32.69140625 8.31640625 C-34.4701841 8.3475779 -34.4701841 8.3475779 -36.28489685 8.37937927 C-40.04404337 8.444357 -43.80325512 8.50351729 -47.5625 8.5625 C-50.12305341 8.60573454 -52.68360041 8.64935035 -55.24414062 8.69335938 C-61.49602637 8.79998477 -67.74797586 8.90184385 -74 9 C-67.31010918 2.31010918 -45.57144841 5.68169432 -36.40161133 5.59863281 C-18.50656809 5.44122161 -18.50656809 5.44122161 -1 2 C-0.67 1.34 -0.34 0.68 0 0 Z " fill="#FBD2B2" transform="translate(478,156)"/>
<path d="M0 0 C2.7912125 1.98322993 3.82597224 3.12986121 4.5 6.5 C4 9 4 9 2.4375 11.375 C0 13 0 13 -3.625 12.875 C-7 12 -7 12 -9 10 C-9.55021834 3.94759825 -9.55021834 3.94759825 -7.875 1.0625 C-5.06487736 -0.52990283 -3.17235276 -0.45319325 0 0 Z " fill="#F7FAFB" transform="translate(177,458)"/>
<path d="M0 0 C0.66 0.33 1.32 0.66 2 1 C1 4 1 4 -0.61962891 5.08740234 C-1.31491699 5.41691895 -2.01020508 5.74643555 -2.7265625 6.0859375 C-3.89215698 6.64244995 -3.89215698 6.64244995 -5.08129883 7.21020508 C-5.92072021 7.5945874 -6.7601416 7.97896973 -7.625 8.375 C-8.48440186 8.77420654 -9.34380371 9.17341309 -10.22924805 9.5847168 C-17.66842614 12.9750624 -25.15581374 15.67832572 -33 18 C-33.64437012 18.19464844 -34.28874023 18.38929688 -34.95263672 18.58984375 C-46.25574449 22 -46.25574449 22 -50 22 C-50 21.01 -50 20.02 -50 19 C-49.34217529 18.82984375 -48.68435059 18.6596875 -48.0065918 18.484375 C-34.12833332 14.85398962 -20.95300337 10.69843827 -7.87353516 4.80224609 C-5.30094738 3.70066629 -2.67125099 2.82871881 0 2 C0 1.34 0 0.68 0 0 Z " fill="#FDBDC3" transform="translate(411,435)"/>
<path d="M0 0 C2 2 2 2 2.375 5.4375 C2 9 2 9 0.3125 10.9375 C-2.41818887 12.19214083 -4.02932151 12.45702746 -7 12 C-8.8125 10.9375 -8.8125 10.9375 -10 9 C-10.36841966 5.56141649 -10.58367385 3.09868019 -8.9375 0 C-5.80557344 -1.61647822 -3.32814714 -0.78665296 0 0 Z " fill="#FAFCFD" transform="translate(353,459)"/>
<path d="M0 0 C0.84872681 0.27094482 0.84872681 0.27094482 1.71459961 0.54736328 C18.58781998 5.89744998 35.61920083 10.59085423 53 14 C53 14.99 53 15.98 53 17 C38.43920685 14.60989141 24.44531694 11.04687449 10.48706055 6.28637695 C5.84770583 4.73936319 1.96464373 3.57187152 -3 4 C-2.34 3.67 -1.68 3.34 -1 3 C-0.67 2.01 -0.34 1.02 0 0 Z " fill="#FDBDC3" transform="translate(110,440)"/>
<path d="M0 0 C1.36402043 2.2863012 2.71634274 4.57821749 4.0625 6.875 C4.45244141 7.52597656 4.84238281 8.17695313 5.24414062 8.84765625 C6.22444533 10.53065725 7.11898432 12.26296199 8 14 C7.67 14.66 7.34 15.32 7 16 C0.42184562 12.95355965 -5.36986818 9.57644793 -11 5 C-7.96894521 1.69750747 -4.58334885 0 0 0 Z " fill="#EA9386" transform="translate(225,383)"/>
<path d="M0 0 C1.32 0.66 2.64 1.32 4 2 C-6.59781348 8.38485553 -16.95897806 13.49859094 -28.82470703 17.13476562 C-34.39197962 18.87980125 -34.39197962 18.87980125 -38.12890625 23.234375 C-38.41636719 24.14703125 -38.70382812 25.0596875 -39 26 C-40 23 -40 23 -39.00390625 20.51953125 C-38.52824219 19.62621094 -38.05257813 18.73289062 -37.5625 17.8125 C-37.08941406 16.91144531 -36.61632812 16.01039063 -36.12890625 15.08203125 C-35.75636719 14.39496094 -35.38382812 13.70789063 -35 13 C-34.34 13.66 -33.68 14.32 -33 15 C-24.72316084 12.52646186 -16.90954124 9.69473502 -9.1875 5.8125 C-8.15689453 5.29526367 -8.15689453 5.29526367 -7.10546875 4.76757812 C-4.40563649 3.37683792 -2.16033992 2.16033992 0 0 Z " fill="#ECB1B5" transform="translate(327,391)"/>
<path d="M0 0 C0.66 0.66 1.32 1.32 2 2 C0.3603125 2.7115625 0.3603125 2.7115625 -1.3125 3.4375 C-17.97280957 11.88539549 -26.41672981 26.78882546 -34 43 C-34.33 43.66 -34.66 44.32 -35 45 C-35.66 45 -36.32 45 -37 45 C-31.91847473 27.06520491 -19.19589344 10.35344233 -3 1 C-2.01 0.67 -1.02 0.34 0 0 Z " fill="#512A23" transform="translate(405,194)"/>
<path d="M0 0 C5.87099194 1.68891549 11.44428147 3.46369371 17 6 C13.83433427 8.11044382 11.48802585 8.75552077 7.8125 9.625 C6.72582031 9.88539063 5.63914062 10.14578125 4.51953125 10.4140625 C3.68808594 10.60742188 2.85664063 10.80078125 2 11 C1.67 12.32 1.34 13.64 1 15 C0.67 10.05 0.34 5.1 0 0 Z " fill="#F4D8CE" transform="translate(358,402)"/>
<path d="M0 0 C12.75733192 2.03477158 23.51359679 11.86612026 30.875 22 C39 34.37349398 39 34.37349398 39 39 C38.34 39 37.68 39 37 39 C36.55011719 38.05640625 36.10023438 37.1128125 35.63671875 36.140625 C28.83304708 22.36377592 20.63818511 12.56740101 7 5 C6.25878906 4.56816406 5.51757812 4.13632813 4.75390625 3.69140625 C3.17973108 2.77604081 1.59181168 1.88433982 0 1 C0 0.67 0 0.34 0 0 Z " fill="#512923" transform="translate(110,204)"/>
<path d="M0 0 C0 0.66 0 1.32 0 2 C-13.96248509 5.11960079 -27.73028334 6.99301483 -42 8 C-41.67 7.01 -41.34 6.02 -41 5 C-35.96521269 4.2835213 -30.92981274 3.57157529 -25.89379883 2.86376953 C-24.18171 2.62249342 -22.46979323 2.37999301 -20.75805664 2.13623047 C-18.29357722 1.78549131 -15.82850678 1.43920101 -13.36328125 1.09375 C-12.22080681 0.92969666 -12.22080681 0.92969666 -11.05525208 0.7623291 C-7.34308213 0.24647965 -3.74948172 -0.12962772 0 0 Z " fill="#FEBEC4" transform="translate(337,417)"/>
<path d="M0 0 C-0.33 0.99 -0.66 1.98 -1 3 C-14.12525706 5.69236042 -26.61702554 6.35635139 -40 6 C-40 5.67 -40 5.34 -40 5 C-38.35 4.67 -36.7 4.34 -35 4 C-35 3.67 -35 3.34 -35 3 C-33.79085938 2.95101563 -32.58171875 2.90203125 -31.3359375 2.8515625 C-22.32294869 2.45174443 -13.50606482 1.82769064 -4.58984375 0.40234375 C-2 0 -2 0 0 0 Z " fill="#FEC0C5" transform="translate(290,408)"/>
<path d="M0 0 C1.09054688 0.38671875 2.18109375 0.7734375 3.3046875 1.171875 C14.07960047 4.91768087 24.81960986 7.7533495 36 10 C36 10.99 36 11.98 36 13 C28.28300076 12.09027245 20.99722497 10.27074043 13.5625 8.0625 C12.26650879 7.68327393 12.26650879 7.68327393 10.94433594 7.29638672 C6.58841931 5.97159663 2.79081564 4.60764525 -1 2 C-0.67 1.34 -0.34 0.68 0 0 Z " fill="#FDBDC3" transform="translate(128,421)"/>
<path d="M0 0 C-1.37278091 3.37534275 -2.5776937 4.6632735 -5.875 6.1875 C-6.55304688 6.51105469 -7.23109375 6.83460938 -7.9296875 7.16796875 C-12.69227084 9.08198809 -17.16623348 9.12088248 -22.25 9.0625 C-22.99507812 9.05798828 -23.74015625 9.05347656 -24.5078125 9.04882812 C-26.3385764 9.03709246 -28.16929873 9.0191585 -30 9 C-30.33 8.01 -30.66 7.02 -31 6 C-29.88882813 5.97421875 -28.77765625 5.9484375 -27.6328125 5.921875 C-19.05224996 5.62862137 -11.75158279 5.0708531 -4 1 C-2 0 -2 0 0 0 Z " fill="#49241E" transform="translate(272,267)"/>
<path d="M0 0 C1.32 0.99 2.64 1.98 4 3 C3.46850342 3.17450684 2.93700684 3.34901367 2.3894043 3.52880859 C-1.77145952 4.90418896 -5.91625466 6.31415172 -10.04296875 7.7890625 C-10.88923828 8.09070313 -11.73550781 8.39234375 -12.60742188 8.703125 C-14.34034439 9.322307 -16.07210407 9.94475233 -17.80273438 10.5703125 C-22.19514337 12.1296681 -26.34537389 13.4362646 -31 14 C-31 13.01 -31 12.02 -31 11 C-30.20303711 10.73783691 -29.40607422 10.47567383 -28.58496094 10.20556641 C-25.61718975 9.22769834 -22.65034076 8.24709392 -19.68408203 7.26464844 C-18.4022164 6.84070398 -17.11999315 6.41783921 -15.83740234 5.99609375 C-13.98961319 5.38828723 -12.14322665 4.77622187 -10.296875 4.1640625 C-9.18666992 3.79748535 -8.07646484 3.4309082 -6.93261719 3.05322266 C-4.49760794 2.17871134 -2.27359191 1.22386969 0 0 Z " fill="#FCBCC2" transform="translate(392,418)"/>
<path d="M0 0 C7.03787373 1.52487264 14.0203196 3.22850751 21 5 C21 5.99 21 6.98 21 8 C18.43635601 7.37942343 15.87415074 6.75370801 13.3125 6.125 C12.59126953 5.95097656 11.87003906 5.77695312 11.12695312 5.59765625 C7.27971155 4.64902134 3.64284431 3.59509159 0 2 C-0.33 2.99 -0.66 3.98 -1 5 C-0.67 3.35 -0.34 1.7 0 0 Z " fill="#F9BDC4" transform="translate(189,412)"/>
<path d="M0 0 C0.32742187 0.63679688 0.65484375 1.27359375 0.9921875 1.9296875 C3.91920837 4.94782186 7.13101943 4.83720878 11.125 5.125 C13.77557732 5.34165589 16.36275593 5.62830788 19 6 C19.33 6.66 19.66 7.32 20 8 C18.06257659 8.02703381 16.12504521 8.04641125 14.1875 8.0625 C13.10855469 8.07410156 12.02960938 8.08570313 10.91796875 8.09765625 C8 8 8 8 5 7 C4.67 7.99 4.34 8.98 4 10 C3.67 8.68 3.34 7.36 3 6 C1.68 6 0.36 6 -1 6 C-0.67 4.02 -0.34 2.04 0 0 Z " fill="#F7B8BE" transform="translate(236,405)"/>
<path d="M0 0 C0.66 0.33 1.32 0.66 2 1 C-7.3414419 13.51906352 -7.3414419 13.51906352 -12.625 14.75 C-13.73875 14.8325 -14.8525 14.915 -16 15 C-12.49441279 11.44314278 -8.89446761 8.03716953 -5.1875 4.6875 C-4.21167969 3.80449219 -3.23585937 2.92148437 -2.23046875 2.01171875 C-1.49441406 1.34785156 -0.75835937 0.68398438 0 0 Z " fill="#FCCEA4" transform="translate(208,42)"/>
<path d="M0 0 C5.94 0 11.88 0 18 0 C16.68 0.33 15.36 0.66 14 1 C14 1.66 14 2.32 14 3 C9.38 3 4.76 3 0 3 C0 2.01 0 1.02 0 0 Z " fill="#FDC2C6" transform="translate(256,440)"/>
<path d="M0 0 C0 0.66 0 1.32 0 2 C-5.37899794 5.54784971 -9.58076669 6.70887831 -16 7 C-16 6.67 -16 6.34 -16 6 C-17.65 5.67 -19.3 5.34 -21 5 C-21 4.67 -21 4.34 -21 4 C-20.28714844 3.96261719 -19.57429687 3.92523438 -18.83984375 3.88671875 C-12.35794557 3.44179707 -6.06659575 0 0 0 Z " fill="#63362F" transform="translate(263,253)"/>
<path d="M0 0 C0.79664063 0.55300781 0.79664063 0.55300781 1.609375 1.1171875 C-0.51455006 1.7872709 -2.63980024 2.45315547 -4.765625 3.1171875 C-5.94898438 3.4884375 -7.13234375 3.8596875 -8.3515625 4.2421875 C-11.390625 5.1171875 -11.390625 5.1171875 -13.390625 5.1171875 C-13.720625 6.4371875 -14.050625 7.7571875 -14.390625 9.1171875 C-14.390625 7.1371875 -14.390625 5.1571875 -14.390625 3.1171875 C-12.48083867 2.3905078 -10.56243985 1.68643162 -8.640625 0.9921875 C-7.57328125 0.59773438 -6.5059375 0.20328125 -5.40625 -0.203125 C-2.390625 -0.8828125 -2.390625 -0.8828125 0 0 Z " fill="#F6B8BD" transform="translate(373.390625,407.8828125)"/>
<path d="M0 0 C0.33 0.66 0.66 1.32 1 2 C0.67 2.66 0.34 3.32 0 4 C4.29 4 8.58 4 13 4 C9.47320901 6.35119399 7.97120515 6.21443452 3.8125 6.125 C2.72582031 6.10695313 1.63914062 6.08890625 0.51953125 6.0703125 C-0.72763672 6.03550781 -0.72763672 6.03550781 -2 6 C-2.33 6.99 -2.66 7.98 -3 9 C-3.33 8.34 -3.66 7.68 -4 7 C-3.22265625 5.2734375 -3.22265625 5.2734375 -2.0625 3.375 C-1.381875 2.26125 -0.70125 1.1475 0 0 Z " fill="#DFA6A9" transform="translate(285,419)"/>
<path d="M0 0 C0.33 0.66 0.66 1.32 1 2 C0.34 3.32 -0.32 4.64 -1 6 C3.29 6 7.58 6 12 6 C12 6.33 12 6.66 12 7 C11.10796875 7.03738281 10.2159375 7.07476562 9.296875 7.11328125 C8.12640625 7.17902344 6.9559375 7.24476563 5.75 7.3125 C4.58984375 7.37050781 3.4296875 7.42851562 2.234375 7.48828125 C-1.10819638 8.01711803 -2.5497057 8.73772333 -5 11 C-5 10.34 -5 9.68 -5 9 C-5.66 9 -6.32 9 -7 9 C-7 8.34 -7 7.68 -7 7 C-5.68 7 -4.36 7 -3 7 C-2.690625 6.030625 -2.38125 5.06125 -2.0625 4.0625 C-1 1 -1 1 0 0 Z " fill="#D6A6A5" transform="translate(277,434)"/>
<path d="M0 0 C0.66 0 1.32 0 2 0 C0.70399814 3.88800558 -1.70784087 5.39873667 -4.875 7.75 C-5.41769531 8.17410156 -5.96039063 8.59820312 -6.51953125 9.03515625 C-8.1171875 10.234375 -8.1171875 10.234375 -11 12 C-11.99 11.67 -12.98 11.34 -14 11 C-13.07316406 10.28972656 -12.14632812 9.57945313 -11.19140625 8.84765625 C-9.98174158 7.91930895 -8.77210776 6.99092145 -7.5625 6.0625 C-6.95083984 5.59392578 -6.33917969 5.12535156 -5.70898438 4.64257812 C-2.75031115 2.44328176 -2.75031115 2.44328176 0 0 Z " fill="#F1C9AB" transform="translate(189,58)"/>
<path d="M0 0 C0.33 0 0.66 0 1 0 C1 2.64 1 5.28 1 8 C-2.63 7.67 -6.26 7.34 -10 7 C-9.67 6.34 -9.34 5.68 -9 5 C-6.93359375 4.5859375 -6.93359375 4.5859375 -4.4375 4.375 C-3.61121094 4.30023438 -2.78492188 4.22546875 -1.93359375 4.1484375 C-0.97646484 4.07496094 -0.97646484 4.07496094 0 4 C0 2.68 0 1.36 0 0 Z " fill="#EDBDC5" transform="translate(337,455)"/>
<path d="M0 0 C0.66 1.32 1.32 2.64 2 4 C3.65 4 5.3 4 7 4 C7.33 4.66 7.66 5.32 8 6 C7.01 6.495 7.01 6.495 6 7 C5.01 8.485 5.01 8.485 4 10 C3.67 8.68 3.34 7.36 3 6 C1.68 6 0.36 6 -1 6 C-0.67 4.02 -0.34 2.04 0 0 Z " fill="#D6A2A3" transform="translate(243,419)"/>
<path d="M0 0 C1.32 0.66 2.64 1.32 4 2 C0.37 3.98 -3.26 5.96 -7 8 C-6 4 -6 4 -2.9375 1.75 C-1.968125 1.1725 -0.99875 0.595 0 0 Z " fill="#F9B9BF" transform="translate(327,391)"/>
<path d="M0 0 C0.474375 0.474375 0.94875 0.94875 1.4375 1.4375 C5.11644797 3.68076096 8.7621112 3.73739578 13 4 C8.61991557 6.58464442 5.88874887 5.81479148 1 5 C0.67 3.35 0.34 1.7 0 0 Z " fill="#421F19" transform="translate(238,254)"/>
<path d="M0 0 C0.66 0 1.32 0 2 0 C1.88601335 1.62580966 1.75844341 3.25067157 1.625 4.875 C1.52058594 6.23238281 1.52058594 6.23238281 1.4140625 7.6171875 C1 10 1 10 -1 12 C-1.14285714 3.42857143 -1.14285714 3.42857143 0 0 Z " fill="#421F19" transform="translate(240,198)"/>
<path d="M0 0 C4.29 0 8.58 0 13 0 C13 0.33 13 0.66 13 1 C11.7625 1.144375 10.525 1.28875 9.25 1.4375 C6.43495501 1.78688502 3.7298503 2.20379366 1 3 C0.67 2.01 0.34 1.02 0 0 Z " fill="#74423A" transform="translate(241,273)"/>
<path d="M0 0 C0.66 0.33 1.32 0.66 2 1 C2 1.66 2 2.32 2 3 C0.02 3.33 -1.96 3.66 -4 4 C-4.33 5.32 -4.66 6.64 -5 8 C-5 6.02 -5 4.04 -5 2 C-2.625 0.9375 -2.625 0.9375 0 0 Z " fill="#F2BEC5" transform="translate(364,409)"/>
<path d="M0 0 C1.65 1.65 3.3 3.3 5 5 C4.01 6.485 4.01 6.485 3 8 C3 7.34 3 6.68 3 6 C1.68 6 0.36 6 -1 6 C-0.67 4.02 -0.34 2.04 0 0 Z " fill="#C99898" transform="translate(236,405)"/>
</svg>
